<?xml version="1.0" encoding="UTF-8" standalone="no"?>
<!-- Created with Inkscape (http://www.inkscape.org/) -->

<svg
   xmlns:osb="http://www.openswatchbook.org/uri/2009/osb"
   xmlns:dc="http://purl.org/dc/elements/1.1/"
   xmlns:cc="http://creativecommons.org/ns#"
   xmlns:rdf="http://www.w3.org/1999/02/22-rdf-syntax-ns#"
   xmlns:svg="http://www.w3.org/2000/svg"
   xmlns="http://www.w3.org/2000/svg"
   xmlns:xlink="http://www.w3.org/1999/xlink"
   xmlns:sodipodi="http://sodipodi.sourceforge.net/DTD/sodipodi-0.dtd"
   xmlns:inkscape="http://www.inkscape.org/namespaces/inkscape"
   width="512.7876mm"
   height="169.57552mm"
   viewBox="0 0 512.7876 169.57552"
   version="1.1"
   id="svg15531"
   inkscape:version="0.92.5 (2060ec1f9f, 2020-04-08)"
   sodipodi:docname="rasterstats.svg">
  <defs
     id="defs15525">
    <marker
       inkscape:stockid="TriangleInM"
       orient="auto"
       refY="0"
       refX="0"
       id="TriangleInM"
       style="overflow:visible"
       inkscape:isstock="true">
      <path
         id="path5438"
         d="M 5.77,0 -2.88,5 V -5 Z"
         style="fill:#000000;fill-opacity:1;fill-rule:evenodd;stroke:#000000;stroke-width:1.00000003pt;stroke-opacity:1"
         transform="scale(-0.4)"
         inkscape:connector-curvature="0" />
    </marker>
    <pattern
       inkscape:collect="always"
       xlink:href="#Checkerboard"
       id="pattern16116"
       patternTransform="matrix(37.795276,0,0,37.795276,-5.7142833,-371.09112)" />
    <pattern
       inkscape:isstock="true"
       inkscape:stockid="Checkerboard"
       id="Checkerboard"
       patternTransform="translate(0,0) scale(10,10)"
       height="2"
       width="2"
       patternUnits="userSpaceOnUse"
       inkscape:collect="always">
      <rect
         id="rect14169"
         height="1"
         width="1"
         y="0"
         x="0"
         style="fill:black;stroke:none" />
      <rect
         id="rect14171"
         height="1"
         width="1"
         y="1"
         x="1"
         style="fill:black;stroke:none" />
    </pattern>
    <pattern
       patternUnits="userSpaceOnUse"
       width="751.42851"
       height="749.99994"
       patternTransform="matrix(0.26458333,0,0,0.26458333,1.5119041,98.184526)"
       id="pattern16113">
      <rect
         y="-5.6843419e-14"
         x="0"
         height="749.99994"
         width="751.42853"
         id="rect16076"
         style="fill:url(#pattern16116);fill-opacity:1;stroke:none;stroke-width:8.56062984;stroke-linecap:square;stroke-linejoin:round;stroke-miterlimit:4;stroke-dasharray:none;stroke-dashoffset:0;stroke-opacity:1;paint-order:normal" />
    </pattern>
    <linearGradient
       osb:paint="solid"
       id="linearGradient14835">
      <stop
         id="stop14833"
         offset="0"
         style="stop-color:#b8b8b8;stop-opacity:1;" />
    </linearGradient>
    <marker
       inkscape:isstock="true"
       style="overflow:visible"
       id="Arrow1Lstart"
       refX="0"
       refY="0"
       orient="auto"
       inkscape:stockid="Arrow1Lstart">
      <path
         transform="matrix(0.8,0,0,0.8,10,0)"
         style="fill:#93a1a1;fill-opacity:1;fill-rule:evenodd;stroke:#073642;stroke-width:1.00000003pt;stroke-opacity:1"
         d="M 0,0 5,-5 -12.5,0 5,5 Z"
         id="path6220"
         inkscape:connector-curvature="0" />
    </marker>
    <marker
       inkscape:isstock="true"
       style="overflow:visible"
       id="marker8234"
       refX="0"
       refY="0"
       orient="auto"
       inkscape:stockid="marker6538GP">
      <path
         transform="matrix(0.4,0,0,0.4,2.96,0.4)"
         style="fill:#93a1a1;fill-opacity:1;fill-rule:evenodd;stroke:#073642;stroke-width:1.00000003pt;stroke-opacity:1"
         d="m -2.5,-1 c 0,2.76 -2.24,5 -5,5 -2.76,0 -5,-2.24 -5,-5 0,-2.76 2.24,-5 5,-5 2.76,0 5,2.24 5,5 z"
         id="path8232"
         inkscape:connector-curvature="0" />
    </marker>
    <marker
       inkscape:stockid="marker6538GP"
       orient="auto"
       refY="0"
       refX="0"
       id="marker7660"
       style="overflow:visible"
       inkscape:isstock="true">
      <path
         id="path7658"
         d="m -2.5,-1 c 0,2.76 -2.24,5 -5,5 -2.76,0 -5,-2.24 -5,-5 0,-2.76 2.24,-5 5,-5 2.76,0 5,2.24 5,5 z"
         style="fill:#dde2e2;fill-opacity:1;fill-rule:evenodd;stroke:#839496;stroke-width:1.00000003pt;stroke-opacity:1"
         transform="matrix(0.4,0,0,0.4,2.96,0.4)"
         inkscape:connector-curvature="0" />
    </marker>
    <marker
       inkscape:stockid="marker6504p2"
       orient="auto"
       refY="0"
       refX="0"
       id="marker7650"
       style="overflow:visible"
       inkscape:isstock="true">
      <path
         id="path7648"
         d="m -2.5,-1 c 0,2.76 -2.24,5 -5,5 -2.76,0 -5,-2.24 -5,-5 0,-2.76 2.24,-5 5,-5 2.76,0 5,2.24 5,5 z"
         style="fill:#93a1a1;fill-opacity:1;fill-rule:evenodd;stroke:#073642;stroke-width:1.00000003pt;stroke-opacity:1"
         transform="matrix(0.4,0,0,0.4,2.96,0.4)"
         inkscape:connector-curvature="0" />
    </marker>
    <marker
       inkscape:stockid="marker6584x3"
       orient="auto"
       refY="0"
       refX="0"
       id="marker7640"
       style="overflow:visible"
       inkscape:isstock="true">
      <path
         id="path7638"
         d="m -2.5,-1 c 0,2.76 -2.24,5 -5,5 -2.76,0 -5,-2.24 -5,-5 0,-2.76 2.24,-5 5,-5 2.76,0 5,2.24 5,5 z"
         style="fill:#93a1a1;fill-opacity:1;fill-rule:evenodd;stroke:#073642;stroke-width:1.00000003pt;stroke-opacity:1"
         transform="matrix(0.4,0,0,0.4,2.96,0.4)"
         inkscape:connector-curvature="0" />
    </marker>
    <marker
       inkscape:stockid="marker6504p2"
       orient="auto"
       refY="0"
       refX="0"
       id="marker7500"
       style="overflow:visible"
       inkscape:isstock="true">
      <path
         id="path7498"
         d="m -2.5,-1 c 0,2.76 -2.24,5 -5,5 -2.76,0 -5,-2.24 -5,-5 0,-2.76 2.24,-5 5,-5 2.76,0 5,2.24 5,5 z"
         style="fill:#073642;fill-opacity:1;fill-rule:evenodd;stroke:#073642;stroke-width:1.00000003pt;stroke-opacity:1"
         transform="matrix(0.4,0,0,0.4,2.96,0.4)"
         inkscape:connector-curvature="0" />
    </marker>
    <marker
       inkscape:stockid="marker6584x3"
       orient="auto"
       refY="0"
       refX="0"
       id="marker7490"
       style="overflow:visible"
       inkscape:isstock="true">
      <path
         id="path7488"
         d="m -2.5,-1 c 0,2.76 -2.24,5 -5,5 -2.76,0 -5,-2.24 -5,-5 0,-2.76 2.24,-5 5,-5 2.76,0 5,2.24 5,5 z"
         style="fill:#073642;fill-opacity:1;fill-rule:evenodd;stroke:#073642;stroke-width:1.00000003pt;stroke-opacity:1"
         transform="matrix(0.4,0,0,0.4,2.96,0.4)"
         inkscape:connector-curvature="0" />
    </marker>
    <marker
       inkscape:stockid="marker6538GP"
       orient="auto"
       refY="0"
       refX="0"
       id="marker7378"
       style="overflow:visible"
       inkscape:isstock="true">
      <path
         id="path7376"
         d="m -2.5,-1 c 0,2.76 -2.24,5 -5,5 -2.76,0 -5,-2.24 -5,-5 0,-2.76 2.24,-5 5,-5 2.76,0 5,2.24 5,5 z"
         style="fill:#073642;fill-opacity:1;fill-rule:evenodd;stroke:#073642;stroke-width:1.00000003pt;stroke-opacity:1"
         transform="matrix(0.4,0,0,0.4,2.96,0.4)"
         inkscape:connector-curvature="0" />
    </marker>
    <marker
       inkscape:stockid="marker6504p2"
       orient="auto"
       refY="0"
       refX="0"
       id="marker7368"
       style="overflow:visible"
       inkscape:isstock="true">
      <path
         id="path7366"
         d="m -2.5,-1 c 0,2.76 -2.24,5 -5,5 -2.76,0 -5,-2.24 -5,-5 0,-2.76 2.24,-5 5,-5 2.76,0 5,2.24 5,5 z"
         style="fill:#073642;fill-opacity:1;fill-rule:evenodd;stroke:#073642;stroke-width:1.00000003pt;stroke-opacity:1"
         transform="matrix(0.4,0,0,0.4,2.96,0.4)"
         inkscape:connector-curvature="0" />
    </marker>
    <marker
       inkscape:stockid="marker6584x3"
       orient="auto"
       refY="0"
       refX="0"
       id="marker7358"
       style="overflow:visible"
       inkscape:isstock="true">
      <path
         id="path7356"
         d="m -2.5,-1 c 0,2.76 -2.24,5 -5,5 -2.76,0 -5,-2.24 -5,-5 0,-2.76 2.24,-5 5,-5 2.76,0 5,2.24 5,5 z"
         style="fill:#073642;fill-opacity:1;fill-rule:evenodd;stroke:#073642;stroke-width:1.00000003pt;stroke-opacity:1"
         transform="matrix(0.4,0,0,0.4,2.96,0.4)"
         inkscape:connector-curvature="0" />
    </marker>
    <marker
       inkscape:isstock="true"
       style="overflow:visible"
       id="DotL"
       refX="0"
       refY="0"
       orient="auto"
       inkscape:stockid="DotL">
      <path
         transform="matrix(0.8,0,0,0.8,5.92,0.8)"
         style="fill:#657b83;fill-opacity:1;fill-rule:evenodd;stroke:#657b83;stroke-width:1.00000003pt;stroke-opacity:1"
         d="m -2.5,-1 c 0,2.76 -2.24,5 -5,5 -2.76,0 -5,-2.24 -5,-5 0,-2.76 2.24,-5 5,-5 2.76,0 5,2.24 5,5 z"
         id="path6281"
         inkscape:connector-curvature="0" />
    </marker>
    <marker
       inkscape:isstock="true"
       style="overflow:visible"
       id="marker6584"
       refX="0"
       refY="0"
       orient="auto"
       inkscape:stockid="DotM">
      <path
         transform="matrix(0.4,0,0,0.4,2.96,0.4)"
         style="fill:#657b83;fill-opacity:1;fill-rule:evenodd;stroke:#657b83;stroke-width:1.00000003pt;stroke-opacity:1"
         d="m -2.5,-1 c 0,2.76 -2.24,5 -5,5 -2.76,0 -5,-2.24 -5,-5 0,-2.76 2.24,-5 5,-5 2.76,0 5,2.24 5,5 z"
         id="path6582"
         inkscape:connector-curvature="0" />
    </marker>
    <marker
       inkscape:isstock="true"
       style="overflow:visible"
       id="marker6538"
       refX="0"
       refY="0"
       orient="auto"
       inkscape:stockid="DotM">
      <path
         transform="matrix(0.4,0,0,0.4,2.96,0.4)"
         style="fill:#93a1a1;fill-opacity:1;fill-rule:evenodd;stroke:#073642;stroke-width:1.00000003pt;stroke-opacity:1"
         d="m -2.5,-1 c 0,2.76 -2.24,5 -5,5 -2.76,0 -5,-2.24 -5,-5 0,-2.76 2.24,-5 5,-5 2.76,0 5,2.24 5,5 z"
         id="path6536"
         inkscape:connector-curvature="0" />
    </marker>
    <marker
       inkscape:isstock="true"
       style="overflow:visible"
       id="marker6504"
       refX="0"
       refY="0"
       orient="auto"
       inkscape:stockid="DotM">
      <path
         transform="matrix(0.4,0,0,0.4,2.96,0.4)"
         style="fill:#657b83;fill-opacity:1;fill-rule:evenodd;stroke:#657b83;stroke-width:1.00000003pt;stroke-opacity:1"
         d="m -2.5,-1 c 0,2.76 -2.24,5 -5,5 -2.76,0 -5,-2.24 -5,-5 0,-2.76 2.24,-5 5,-5 2.76,0 5,2.24 5,5 z"
         id="path6502"
         inkscape:connector-curvature="0" />
    </marker>
    <marker
       inkscape:isstock="true"
       style="overflow:visible"
       id="DotM"
       refX="0"
       refY="0"
       orient="auto"
       inkscape:stockid="DotM">
      <path
         transform="matrix(0.4,0,0,0.4,2.96,0.4)"
         style="fill:#657b83;fill-opacity:1;fill-rule:evenodd;stroke:#657b83;stroke-width:1.00000003pt;stroke-opacity:1"
         d="m -2.5,-1 c 0,2.76 -2.24,5 -5,5 -2.76,0 -5,-2.24 -5,-5 0,-2.76 2.24,-5 5,-5 2.76,0 5,2.24 5,5 z"
         id="path6284"
         inkscape:connector-curvature="0" />
    </marker>
    <marker
       inkscape:isstock="true"
       style="overflow:visible"
       id="marker6584x"
       refX="0"
       refY="0"
       orient="auto"
       inkscape:stockid="marker6584x">
      <path
         transform="matrix(0.4,0,0,0.4,2.96,0.4)"
         style="fill:#657b83;fill-opacity:1;fill-rule:evenodd;stroke:#657b83;stroke-width:1.00000003pt;stroke-opacity:1"
         d="m -2.5,-1 c 0,2.76 -2.24,5 -5,5 -2.76,0 -5,-2.24 -5,-5 0,-2.76 2.24,-5 5,-5 2.76,0 5,2.24 5,5 z"
         id="path6886"
         inkscape:connector-curvature="0" />
    </marker>
    <marker
       inkscape:isstock="true"
       style="overflow:visible"
       id="marker6504p"
       refX="0"
       refY="0"
       orient="auto"
       inkscape:stockid="marker6504p">
      <path
         transform="matrix(0.4,0,0,0.4,2.96,0.4)"
         style="fill:#93a1a1;fill-opacity:1;fill-rule:evenodd;stroke:#073642;stroke-width:1.00000003pt;stroke-opacity:1"
         d="m -2.5,-1 c 0,2.76 -2.24,5 -5,5 -2.76,0 -5,-2.24 -5,-5 0,-2.76 2.24,-5 5,-5 2.76,0 5,2.24 5,5 z"
         id="path6889"
         inkscape:connector-curvature="0" />
    </marker>
    <marker
       inkscape:isstock="true"
       style="overflow:visible"
       id="marker6538G"
       refX="0"
       refY="0"
       orient="auto"
       inkscape:stockid="marker6538G">
      <path
         transform="matrix(0.4,0,0,0.4,2.96,0.4)"
         style="fill:#657b83;fill-opacity:1;fill-rule:evenodd;stroke:#657b83;stroke-width:1.00000003pt;stroke-opacity:1"
         d="m -2.5,-1 c 0,2.76 -2.24,5 -5,5 -2.76,0 -5,-2.24 -5,-5 0,-2.76 2.24,-5 5,-5 2.76,0 5,2.24 5,5 z"
         id="path6892"
         inkscape:connector-curvature="0" />
    </marker>
    <marker
       inkscape:isstock="true"
       style="overflow:visible"
       id="marker6504p4"
       refX="0"
       refY="0"
       orient="auto"
       inkscape:stockid="marker6504p4">
      <path
         transform="matrix(0.4,0,0,0.4,2.96,0.4)"
         style="fill:#93a1a1;fill-opacity:1;fill-rule:evenodd;stroke:#073642;stroke-width:1.00000003pt;stroke-opacity:1"
         d="m -2.5,-1 c 0,2.76 -2.24,5 -5,5 -2.76,0 -5,-2.24 -5,-5 0,-2.76 2.24,-5 5,-5 2.76,0 5,2.24 5,5 z"
         id="path9215"
         inkscape:connector-curvature="0" />
    </marker>
    <marker
       inkscape:isstock="true"
       style="overflow:visible"
       id="marker6538M"
       refX="0"
       refY="0"
       orient="auto"
       inkscape:stockid="marker6538M">
      <path
         transform="matrix(0.4,0,0,0.4,2.96,0.4)"
         style="fill:#93a1a1;fill-opacity:1;fill-rule:evenodd;stroke:#073642;stroke-width:1.00000003pt;stroke-opacity:1"
         d="m -2.5,-1 c 0,2.76 -2.24,5 -5,5 -2.76,0 -5,-2.24 -5,-5 0,-2.76 2.24,-5 5,-5 2.76,0 5,2.24 5,5 z"
         id="path9218"
         inkscape:connector-curvature="0" />
    </marker>
    <marker
       inkscape:stockid="marker7660S"
       orient="auto"
       refY="0"
       refX="0"
       id="marker7660S"
       style="overflow:visible"
       inkscape:isstock="true">
      <path
         id="path9221"
         d="m -2.5,-1 c 0,2.76 -2.24,5 -5,5 -2.76,0 -5,-2.24 -5,-5 0,-2.76 2.24,-5 5,-5 2.76,0 5,2.24 5,5 z"
         style="fill:#93a1a1;fill-opacity:1;fill-rule:evenodd;stroke:#073642;stroke-width:1.00000003pt;stroke-opacity:1"
         transform="matrix(0.4,0,0,0.4,2.96,0.4)"
         inkscape:connector-curvature="0" />
    </marker>
    <marker
       inkscape:isstock="true"
       style="overflow:visible"
       id="marker6504p4G"
       refX="0"
       refY="0"
       orient="auto"
       inkscape:stockid="marker6504p4G">
      <path
         transform="matrix(0.4,0,0,0.4,2.96,0.4)"
         style="fill:#93a1a1;fill-opacity:1;fill-rule:evenodd;stroke:#073642;stroke-width:1.00000003pt;stroke-opacity:1"
         d="m -2.5,-1 c 0,2.76 -2.24,5 -5,5 -2.76,0 -5,-2.24 -5,-5 0,-2.76 2.24,-5 5,-5 2.76,0 5,2.24 5,5 z"
         id="path9562"
         inkscape:connector-curvature="0" />
    </marker>
    <marker
       inkscape:isstock="true"
       style="overflow:visible"
       id="marker6538Ms"
       refX="0"
       refY="0"
       orient="auto"
       inkscape:stockid="marker6538Ms">
      <path
         transform="matrix(0.4,0,0,0.4,2.96,0.4)"
         style="fill:#93a1a1;fill-opacity:1;fill-rule:evenodd;stroke:#073642;stroke-width:1.00000003pt;stroke-opacity:1"
         d="m -2.5,-1 c 0,2.76 -2.24,5 -5,5 -2.76,0 -5,-2.24 -5,-5 0,-2.76 2.24,-5 5,-5 2.76,0 5,2.24 5,5 z"
         id="path9565"
         inkscape:connector-curvature="0" />
    </marker>
    <marker
       inkscape:stockid="marker7660Se"
       orient="auto"
       refY="0"
       refX="0"
       id="marker7660Se"
       style="overflow:visible"
       inkscape:isstock="true">
      <path
         id="path9568"
         d="m -2.5,-1 c 0,2.76 -2.24,5 -5,5 -2.76,0 -5,-2.24 -5,-5 0,-2.76 2.24,-5 5,-5 2.76,0 5,2.24 5,5 z"
         style="fill:#93a1a1;fill-opacity:1;fill-rule:evenodd;stroke:#073642;stroke-width:1.00000003pt;stroke-opacity:1"
         transform="matrix(0.4,0,0,0.4,2.96,0.4)"
         inkscape:connector-curvature="0" />
    </marker>
  </defs>
  <sodipodi:namedview
     id="base"
     pagecolor="#ffffff"
     bordercolor="#666666"
     borderopacity="1.0"
     inkscape:pageopacity="0.0"
     inkscape:pageshadow="2"
     inkscape:zoom="0.35"
     inkscape:cx="1014.5849"
     inkscape:cy="516.84762"
     inkscape:document-units="mm"
     inkscape:current-layer="layer1"
     showgrid="false"
     inkscape:window-width="1920"
     inkscape:window-height="1129"
     inkscape:window-x="0"
     inkscape:window-y="0"
     inkscape:window-maximized="1"
     fit-margin-top="0"
     fit-margin-left="0"
     fit-margin-right="0"
     fit-margin-bottom="0" />
  <metadata
     id="metadata15528">
    <rdf:RDF>
      <cc:Work
         rdf:about="">
        <dc:format>image/svg+xml</dc:format>
        <dc:type
           rdf:resource="http://purl.org/dc/dcmitype/StillImage" />
        <dc:title></dc:title>
      </cc:Work>
    </rdf:RDF>
  </metadata>
  <g
     inkscape:label="Layer 1"
     inkscape:groupmode="layer"
     id="layer1"
     transform="translate(-11.74139,-73.042111)">
    <text
       xml:space="preserve"
       style="font-style:normal;font-variant:normal;font-weight:normal;font-stretch:normal;font-size:28.38278389px;line-height:1.25;font-family:aakar;-inkscape-font-specification:aakar;letter-spacing:0px;word-spacing:0px;fill:#839496;fill-opacity:1;stroke:none;stroke-width:0.53217715"
       x="101.36522"
       y="197.53893"
       id="text16222-64"><tspan
         sodipodi:role="line"
         id="tspan16220-3"
         x="101.36522"
         y="220.06476"
         style="font-style:normal;font-variant:normal;font-weight:normal;font-stretch:normal;font-size:28.38278389px;font-family:Chandas;-inkscape-font-specification:Chandas;fill:#839496;fill-opacity:1;stroke-width:0.53217715" /></text>
    <g
       id="g5272"
       transform="translate(6.8874646,-48.432912)">
      <rect
         y="122.37502"
         x="5.7539258"
         height="41.943878"
         width="41.943878"
         id="rect16122-6-5"
         style="fill:#e0f3db;fill-opacity:1;stroke:#839496;stroke-width:1.79999995;stroke-linecap:square;stroke-linejoin:miter;stroke-miterlimit:4;stroke-dasharray:none;stroke-dashoffset:0;stroke-opacity:1;paint-order:normal" />
      <rect
         y="122.37503"
         x="47.697803"
         height="41.943878"
         width="41.943878"
         id="rect16122-6-5-5"
         style="fill:#e0f3db;fill-opacity:1;stroke:#839496;stroke-width:1.80000007;stroke-linecap:square;stroke-linejoin:miter;stroke-miterlimit:4;stroke-dasharray:none;stroke-dashoffset:0;stroke-opacity:1;paint-order:normal" />
      <rect
         y="122.37503"
         x="89.641678"
         height="41.943878"
         width="41.943878"
         id="rect16122-6-5-59"
         style="fill:#e0f3db;fill-opacity:1;stroke:#839496;stroke-width:1.80000007;stroke-linecap:square;stroke-linejoin:miter;stroke-miterlimit:4;stroke-dasharray:none;stroke-dashoffset:0;stroke-opacity:1;paint-order:normal" />
      <rect
         y="122.37503"
         x="131.58556"
         height="41.943878"
         width="41.943878"
         id="rect16122-6-5-2"
         style="fill:#4eb3d3;fill-opacity:1;stroke:#839496;stroke-width:1.80000007;stroke-linecap:square;stroke-linejoin:miter;stroke-miterlimit:4;stroke-dasharray:none;stroke-dashoffset:0;stroke-opacity:1;paint-order:normal" />
      <rect
         y="164.31891"
         x="5.7539258"
         height="41.943878"
         width="41.943878"
         id="rect16122-6-5-53"
         style="fill:#ccebc5;fill-opacity:1;stroke:#839496;stroke-width:1.80000007;stroke-linecap:square;stroke-linejoin:miter;stroke-miterlimit:4;stroke-dasharray:none;stroke-dashoffset:0;stroke-opacity:1;paint-order:normal" />
      <rect
         y="164.31891"
         x="47.6978"
         height="41.943878"
         width="41.943878"
         id="rect16122-6-5-7"
         style="fill:#e0f3db;fill-opacity:1;stroke:#839496;stroke-width:1.80000007;stroke-linecap:square;stroke-linejoin:miter;stroke-miterlimit:4;stroke-dasharray:none;stroke-dashoffset:0;stroke-opacity:1;paint-order:normal" />
      <rect
         y="164.31891"
         x="131.58554"
         height="41.943878"
         width="41.943878"
         id="rect16122-6-5-3"
         style="fill:#4eb3d3;fill-opacity:1;stroke:#839496;stroke-width:1.80000007;stroke-linecap:square;stroke-linejoin:miter;stroke-miterlimit:4;stroke-dasharray:none;stroke-dashoffset:0;stroke-opacity:1;paint-order:normal" />
      <rect
         y="206.26277"
         x="5.7539296"
         height="41.943878"
         width="41.943878"
         id="rect16122-6-5-8"
         style="fill:#7bccc4;fill-opacity:1;stroke:#839496;stroke-width:1.80000007;stroke-linecap:square;stroke-linejoin:miter;stroke-miterlimit:4;stroke-dasharray:none;stroke-dashoffset:0;stroke-opacity:1;paint-order:normal" />
      <rect
         y="206.26279"
         x="47.697807"
         height="41.943878"
         width="41.943878"
         id="rect16122-6-5-5-9"
         style="fill:#7bccc4;fill-opacity:1;stroke:#839496;stroke-width:1.80000019;stroke-linecap:square;stroke-linejoin:miter;stroke-miterlimit:4;stroke-dasharray:none;stroke-dashoffset:0;stroke-opacity:1;paint-order:normal" />
      <rect
         y="206.26279"
         x="89.641685"
         height="41.943878"
         width="41.943878"
         id="rect16122-6-5-59-8"
         style="opacity:1;vector-effect:none;fill:#7bccc4;fill-opacity:1;stroke:#839496;stroke-width:1.80000019;stroke-linecap:square;stroke-linejoin:miter;stroke-miterlimit:4;stroke-dasharray:none;stroke-dashoffset:0;stroke-opacity:1;paint-order:normal" />
      <rect
         y="206.26279"
         x="131.58556"
         height="41.943878"
         width="41.943878"
         id="rect16122-6-5-2-2"
         style="fill:#7bccc4;fill-opacity:1;stroke:#839496;stroke-width:1.80000019;stroke-linecap:square;stroke-linejoin:miter;stroke-miterlimit:4;stroke-dasharray:none;stroke-dashoffset:0;stroke-opacity:1;paint-order:normal" />
      <rect
         y="248.20667"
         x="5.7539296"
         height="41.943878"
         width="41.943878"
         id="rect16122-6-5-53-8"
         style="fill:#e0f3db;fill-opacity:1;stroke:#839496;stroke-width:1.80000019;stroke-linecap:square;stroke-linejoin:miter;stroke-miterlimit:4;stroke-dasharray:none;stroke-dashoffset:0;stroke-opacity:1;paint-order:normal" />
      <rect
         y="248.20667"
         x="47.697807"
         height="41.943878"
         width="41.943878"
         id="rect16122-6-5-7-1"
         style="fill:#e0f3db;fill-opacity:1;stroke:#839496;stroke-width:1.80000019;stroke-linecap:square;stroke-linejoin:miter;stroke-miterlimit:4;stroke-dasharray:none;stroke-dashoffset:0;stroke-opacity:1;paint-order:normal" />
      <rect
         y="248.20667"
         x="89.641678"
         height="41.943878"
         width="41.943878"
         id="rect16122-6-5-20-8"
         style="fill:#ccebc5;fill-opacity:1;stroke:#839496;stroke-width:1.80000019;stroke-linecap:square;stroke-linejoin:miter;stroke-miterlimit:4;stroke-dasharray:none;stroke-dashoffset:0;stroke-opacity:1;paint-order:normal" />
      <rect
         y="248.20667"
         x="131.58554"
         height="41.943878"
         width="41.943878"
         id="rect16122-6-5-3-0"
         style="fill:#ccebc5;fill-opacity:1;stroke:#839496;stroke-width:1.80000019;stroke-linecap:square;stroke-linejoin:miter;stroke-miterlimit:4;stroke-dasharray:none;stroke-dashoffset:0;stroke-opacity:1;paint-order:normal" />
      <rect
         y="164.31891"
         x="89.641678"
         height="41.943878"
         width="41.943878"
         id="rect16122-6-5-7-6"
         style="fill:#7bccc4;fill-opacity:1;stroke:#839496;stroke-width:1.80000019;stroke-linecap:square;stroke-linejoin:miter;stroke-miterlimit:4;stroke-dasharray:none;stroke-dashoffset:0;stroke-opacity:1;paint-order:normal" />
    </g>
    <g
       id="g5290"
       transform="translate(186.72024,-46.113095)">
      <path
         sodipodi:nodetypes="cccccccccccccccccc"
         inkscape:connector-curvature="0"
         id="path6210"
         d="m 110.57891,132.5414 c -2.91902,0 -43.785297,-0.26536 -43.785297,-0.26536 l -7.695592,31.57849 16.187295,26.80189 -11.410712,26.80191 -26.005812,-23.08679 -16.983391,16.45265 16.187294,33.43604 30.517015,5.57268 27.863373,6.10341 -2.653657,18.84094 25.475084,1.59219 4.77656,-41.92774 3.98049,-30.78237 -6.1034,-37.6819 -15.39119,-9.55315 11.14534,-14.86045 c -1.9681,-3.04871 -4.33138,-5.85142 -6.1034,-9.02244 z"
         style="fill:#fc0066;fill-opacity:0;stroke:#fc4e2a;stroke-width:2.24886346;stroke-linecap:square;stroke-linejoin:round;stroke-miterlimit:4;stroke-dasharray:none;stroke-opacity:1;paint-order:normal" />
      <circle
         r="2.9786267"
         cy="211.35492"
         cx="21.41614"
         id="path13302-7-8"
         style="fill:#3e4949;fill-opacity:1;stroke:none;stroke-width:2.24886322;stroke-linejoin:round;stroke-miterlimit:4;stroke-dasharray:none;stroke-dashoffset:0;stroke-opacity:1" />
      <circle
         r="2.9786267"
         cy="194.90227"
         cx="37.072689"
         id="path13302-7-7"
         style="fill:#3e4949;fill-opacity:1;stroke:none;stroke-width:2.24886322;stroke-linejoin:round;stroke-miterlimit:4;stroke-dasharray:none;stroke-dashoffset:0;stroke-opacity:1" />
      <circle
         r="2.9786267"
         cy="216.92763"
         cx="63.343853"
         id="path13302-7-92"
         style="fill:#3e4949;fill-opacity:1;stroke:none;stroke-width:2.24886322;stroke-linejoin:round;stroke-miterlimit:4;stroke-dasharray:none;stroke-dashoffset:0;stroke-opacity:1" />
      <circle
         r="2.9786267"
         cy="190.65642"
         cx="74.754562"
         id="path13302-7-02"
         style="fill:#3e4949;fill-opacity:1;stroke:none;stroke-width:2.24886322;stroke-linejoin:round;stroke-miterlimit:4;stroke-dasharray:none;stroke-dashoffset:0;stroke-opacity:1" />
      <circle
         r="2.9786267"
         cy="164.1199"
         cx="59.098019"
         id="path13302-7-37"
         style="fill:#3e4949;fill-opacity:1;stroke:none;stroke-width:2.24886322;stroke-linejoin:round;stroke-miterlimit:4;stroke-dasharray:none;stroke-dashoffset:0;stroke-opacity:1" />
      <circle
         r="2.9786267"
         cy="133.07211"
         cx="67.058975"
         id="path13302-7-59"
         style="fill:#3e4949;fill-opacity:1;stroke:none;stroke-width:2.24886322;stroke-linejoin:round;stroke-miterlimit:4;stroke-dasharray:none;stroke-dashoffset:0;stroke-opacity:1" />
      <circle
         r="2.9786267"
         cy="132.5414"
         cx="110.04816"
         id="path13302-7-22"
         style="fill:#3e4949;fill-opacity:1;stroke:none;stroke-width:2.24886322;stroke-linejoin:round;stroke-miterlimit:4;stroke-dasharray:none;stroke-dashoffset:0;stroke-opacity:1" />
      <circle
         r="2.9786267"
         cy="141.29846"
         cx="116.41695"
         id="path13302-7-89"
         style="fill:#3e4949;fill-opacity:1;stroke:none;stroke-width:2.24886322;stroke-linejoin:round;stroke-miterlimit:4;stroke-dasharray:none;stroke-dashoffset:0;stroke-opacity:1" />
      <circle
         r="2.9786267"
         cy="155.89355"
         cx="105.80232"
         id="path13302-7-73"
         style="fill:#3e4949;fill-opacity:1;stroke:none;stroke-width:2.24886322;stroke-linejoin:round;stroke-miterlimit:4;stroke-dasharray:none;stroke-dashoffset:0;stroke-opacity:1" />
      <circle
         r="2.9786267"
         cy="164.91599"
         cx="120.13202"
         id="path13302-7-612"
         style="fill:#3e4949;fill-opacity:1;stroke:none;stroke-width:2.24886322;stroke-linejoin:round;stroke-miterlimit:4;stroke-dasharray:none;stroke-dashoffset:0;stroke-opacity:1" />
      <circle
         r="2.9786267"
         cy="203.1286"
         cx="126.7662"
         id="path13302-7-931"
         style="fill:#3e4949;fill-opacity:1;stroke:none;stroke-width:2.24886322;stroke-linejoin:round;stroke-miterlimit:4;stroke-dasharray:none;stroke-dashoffset:0;stroke-opacity:1" />
      <circle
         r="2.9786267"
         cy="275.5733"
         cx="118.00912"
         id="path13302-7-94"
         style="fill:#3e4949;fill-opacity:1;stroke:none;stroke-width:2.24886322;stroke-linejoin:round;stroke-miterlimit:4;stroke-dasharray:none;stroke-dashoffset:0;stroke-opacity:1" />
      <circle
         r="2.9786267"
         cy="274.24649"
         cx="93.330147"
         id="path13302-7-78"
         style="fill:#3e4949;fill-opacity:1;stroke:none;stroke-width:2.24886322;stroke-linejoin:round;stroke-miterlimit:4;stroke-dasharray:none;stroke-dashoffset:0;stroke-opacity:1" />
      <circle
         r="2.9786267"
         cy="256.20169"
         cx="95.187714"
         id="path13302-7-4"
         style="fill:#3e4949;fill-opacity:1;stroke:none;stroke-width:2.24886322;stroke-linejoin:round;stroke-miterlimit:4;stroke-dasharray:none;stroke-dashoffset:0;stroke-opacity:1" />
      <circle
         r="2.9786267"
         cy="243.99487"
         cx="37.338024"
         id="path13302-7-50"
         style="fill:#3e4949;fill-opacity:1;stroke:none;stroke-width:2.24886322;stroke-linejoin:round;stroke-miterlimit:4;stroke-dasharray:none;stroke-dashoffset:0;stroke-opacity:1" />
    </g>
    <path
       style="fill:none;stroke:#000000;stroke-width:3.66499996;stroke-linecap:butt;stroke-linejoin:miter;stroke-miterlimit:4;stroke-dasharray:none;stroke-opacity:1;marker-start:url(#TriangleInM)"
       d="M 398.24424,158.01985 H 349.6012 c -5.87994,0 -5.3454,0 -5.3454,0"
       id="path5300"
       inkscape:connector-curvature="0" />
    <text
       xml:space="preserve"
       style="font-style:normal;font-variant:normal;font-weight:normal;font-stretch:normal;font-size:16.93333244px;line-height:1.25;font-family:Ubuntu;-inkscape-font-specification:'Ubuntu, Normal';font-variant-ligatures:normal;font-variant-caps:normal;font-variant-numeric:normal;font-feature-settings:normal;text-align:start;letter-spacing:0px;word-spacing:0px;writing-mode:lr-tb;text-anchor:start;fill:#000000;fill-opacity:1;stroke:none;stroke-width:0.26458332"
       x="445.25571"
       y="89.113091"
       id="text5575"><tspan
         sodipodi:role="line"
         id="tspan5573"
         x="445.25571"
         y="89.113091"
         style="font-style:normal;font-variant:normal;font-weight:normal;font-stretch:normal;font-size:16.93333244px;font-family:Ubuntu;-inkscape-font-specification:'Ubuntu, Normal';font-variant-ligatures:normal;font-variant-caps:normal;font-variant-numeric:normal;font-feature-settings:normal;text-align:start;writing-mode:lr-tb;text-anchor:start;stroke-width:0.26458332">minimum</tspan><tspan
         sodipodi:role="line"
         x="445.25571"
         y="110.27975"
         style="font-style:normal;font-variant:normal;font-weight:normal;font-stretch:normal;font-size:16.93333244px;font-family:Ubuntu;-inkscape-font-specification:'Ubuntu, Normal';font-variant-ligatures:normal;font-variant-caps:normal;font-variant-numeric:normal;font-feature-settings:normal;text-align:start;writing-mode:lr-tb;text-anchor:start;stroke-width:0.26458332"
         id="tspan5577">maximum</tspan><tspan
         sodipodi:role="line"
         x="445.25571"
         y="131.44643"
         style="font-style:normal;font-variant:normal;font-weight:normal;font-stretch:normal;font-size:16.93333244px;font-family:Ubuntu;-inkscape-font-specification:'Ubuntu, Normal';font-variant-ligatures:normal;font-variant-caps:normal;font-variant-numeric:normal;font-feature-settings:normal;text-align:start;writing-mode:lr-tb;text-anchor:start;stroke-width:0.26458332"
         id="tspan5579">range</tspan><tspan
         sodipodi:role="line"
         x="445.25571"
         y="152.61308"
         style="font-style:normal;font-variant:normal;font-weight:normal;font-stretch:normal;font-size:16.93333244px;font-family:Ubuntu;-inkscape-font-specification:'Ubuntu, Normal';font-variant-ligatures:normal;font-variant-caps:normal;font-variant-numeric:normal;font-feature-settings:normal;text-align:start;writing-mode:lr-tb;text-anchor:start;stroke-width:0.26458332"
         id="tspan5581">mean</tspan><tspan
         sodipodi:role="line"
         x="445.25571"
         y="173.77975"
         style="font-style:normal;font-variant:normal;font-weight:normal;font-stretch:normal;font-size:16.93333244px;font-family:Ubuntu;-inkscape-font-specification:'Ubuntu, Normal';font-variant-ligatures:normal;font-variant-caps:normal;font-variant-numeric:normal;font-feature-settings:normal;text-align:start;writing-mode:lr-tb;text-anchor:start;stroke-width:0.26458332"
         id="tspan5583">sum</tspan><tspan
         sodipodi:role="line"
         x="445.25571"
         y="194.94641"
         style="font-style:normal;font-variant:normal;font-weight:normal;font-stretch:normal;font-size:16.93333244px;font-family:Ubuntu;-inkscape-font-specification:'Ubuntu, Normal';font-variant-ligatures:normal;font-variant-caps:normal;font-variant-numeric:normal;font-feature-settings:normal;text-align:start;writing-mode:lr-tb;text-anchor:start;stroke-width:0.26458332"
         id="tspan5585">variance</tspan><tspan
         sodipodi:role="line"
         x="445.25571"
         y="216.11308"
         style="font-style:normal;font-variant:normal;font-weight:normal;font-stretch:normal;font-size:16.93333244px;font-family:Ubuntu;-inkscape-font-specification:'Ubuntu, Normal';font-variant-ligatures:normal;font-variant-caps:normal;font-variant-numeric:normal;font-feature-settings:normal;text-align:start;writing-mode:lr-tb;text-anchor:start;stroke-width:0.26458332"
         id="tspan5587">quantiles</tspan><tspan
         sodipodi:role="line"
         x="445.25571"
         y="237.27975"
         style="font-style:normal;font-variant:normal;font-weight:normal;font-stretch:normal;font-size:16.93333244px;font-family:Ubuntu;-inkscape-font-specification:'Ubuntu, Normal';font-variant-ligatures:normal;font-variant-caps:normal;font-variant-numeric:normal;font-feature-settings:normal;text-align:start;writing-mode:lr-tb;text-anchor:start;stroke-width:0.26458332"
         id="tspan5589">etc.</tspan></text>
  </g>
</svg>
